<?xml version="1.0" encoding="UTF-8"?>
<svg id="Layer_1" xmlns="http://www.w3.org/2000/svg" version="1.1" viewBox="0 0 588.2 144">
  <!-- Generator: Adobe Illustrator 29.3.1, SVG Export Plug-In . SVG Version: 2.1.0 Build 151)  -->
  <defs>
    <style>
      .st0 {
        fill: #231f20;
      }
    </style>
  </defs>
  <g id="Layer_2">
    <g id="Layer_1-2">
      <rect class="st0" x=".1" y="115.7" width="190.3" height="27.2"/>
      <rect class="st0" x=".1" y="58.4" width="190.3" height="28.7"/>
      <rect class="st0" x="46.6" y="1" width="143.8" height="28.7"/>
      <path class="st0" d="M15.3,31.8c8.4,0,15.3-7.1,15.3-15.9S23.7,0,15.3,0,0,7.1,0,15.9s6.8,15.9,15.3,15.9"/>
      <path class="st0" d="M558.7,101l5.2,15.3h-10.5l5.2-15.3ZM573,142.9h15.2l-22-60.4h-15.1l-20.8,60.4h14.1l4.9-14.4h18.7l5,14.4ZM518.3,125.9c-3.1,2.9-7.1,4.5-11.3,4.5-10,0-16.6-7.8-16.6-17.7s5.9-17.7,16.5-17.7c4.2,0,8.3,1.6,11.4,4.5l8.5-11c-4.7-4.2-11.1-7.2-20.1-7.2-19,0-31.3,14-31.3,31.4s11.8,31.2,31.6,31.2c7.4.2,14.5-2.7,19.7-7.8l-8.4-10.3ZM467,82.5h-14.3v60.4h14.3v-60.4ZM421.1,95.1c3.2,0,5.1,2.2,5.1,5.5s-1.9,5.7-5.1,5.7h-5v-11.2h5ZM441,100.5c0-11.4-6.3-18-18.7-18h-20.4v60.4h14.2v-24.8h3.9l11.7,24.8h15.3l-13.6-27.6c4.8-3,7.5-8.1,7.5-14.8M391.6,142.9v-13.6h-14.1v-10.4h13.4v-13.4h-13.4v-9.3h13.8v-13.6h-28.1v60.4h28.4ZM338.4,100.5v42.4h13.8v-60.4h-21l-13.2,40.9-13.1-40.9h-21.4v60.4h13.2v-42.4l14.1,42.4h13.6l14.1-42.4ZM248.4,101l5.2,15.3h-10.5l5.3-15.3ZM262.7,142.9h15.2l-22-60.4h-15.1l-20.8,60.4h14.1l4.9-14.4h18.7l5,14.4Z"/>
      <path class="st0" d="M260.5,1v36.5L238.2,1h-14.7v60.4h13.8V25.7l22.9,35.7h14.1V1h-13.8ZM285.4,1v60.4h28.4v-13.6h-14.1v-10.4h13.4v-13.4h-13.4v-9.4h13.8V1h-28.1ZM392.1,1l-9.7,41.1-10.4-41.1h-15.3l-10.4,41.1-9.7-41.1h-15.7l16.4,60.4h16.4l10.3-37.9,10.2,37.9h16.8L407,1.1h-14.9Z"/>
    </g>
  </g>
</svg>